<?xml version="1.0" encoding="UTF-8"?><svg xmlns="http://www.w3.org/2000/svg" width="500" height="500" viewBox="0 0 500 500"><g id="Background"><rect width="500" height="500" stroke="#fff" stroke-miterlimit="10"/></g><g id="logo"><path d="M327.83,285.2h-155.4s-.19-10.98-.19-10.98l65.69-38.26-65.55-38.59-.13-10.87,61.05-.21h34.2s60.44.21,60.44.21l.07,10.76-65.61,38.72,65.58,38.24-.17,10.99ZM300.04,199.47l-100.25-.08,50.41,29.82,49.83-29.73ZM300.37,271.91l-50.35-29.59-50.22,29.59h100.57Z" fill="#fff"/><path d="M325.28,138.04c-7.12,19.01-24.71,30.46-44.51,30.44-11.3,0-21.47-3.2-30.6-10.34-19.58,15.19-48.09,13.74-65.28-4.26-11.26-11.79-14.97-27.96-12.71-43.86,3.44-24.22,23.46-41.51,47.91-41.22,11.24.13,21.55,3.53,30.06,10.6,23.25-18.57,58.07-12.3,72.6,14.08,6.89,13.85,8.17,29.54,2.55,44.56ZM241.03,148.23c-11.85-17.97-11.49-41.86.15-59.36-14.31-9.89-33.64-9.01-46.33,2.96-8.48,8-11.78,19.29-10.77,30.79,1.72,19.71,17.98,33.51,37.6,32.33,7.08-.43,13.72-2.25,19.35-6.72ZM279.49,155c21.29.75,36.74-15.45,36.94-35.8.18-18.23-11.55-33.83-30.16-36.64-9.62-1.45-19.31.59-27.08,6.41,11.74,18.13,11.76,41.29,0,59.45,5.88,4.16,12.56,6.31,20.31,6.58ZM250.24,138.74c7.39-12.94,7.12-27.88-.09-40.28-7.22,12.4-7.5,28.11.09,40.28Z" fill="#fff"/><path d="M327.99,391.34h-155.59s-.17-13.57-.17-13.57l61.4.03c2.26,0,3.91-.51,5.76-2.52l-67.01-53.32-.08-10.98h155.52s.25,10.83.25,10.83l-67.13,53.44c1.21,1.68,3.11,2.55,5.43,2.55l61.59-.03.04,13.58ZM303.21,324.63h-106.19s53.13,42.34,53.13,42.34l53.06-42.34Z" fill="#fff"/><polygon points="327.88 430.71 172.28 430.71 172.3 417.14 327.91 417.14 327.88 430.71" fill="#fff"/></g></svg>