<?xml version="1.0" encoding="UTF-8"?><svg xmlns="http://www.w3.org/2000/svg" width="500" height="500" viewBox="0 0 500 500"><g id="Background"><rect width="500" height="500" stroke="#fff" stroke-miterlimit="10"/></g><g id="logo"><path d="M316.77,280.12h-133.39s-.17-9.42-.17-9.42l56.39-32.85-56.27-33.12-.11-9.33,52.41-.18h29.36s51.88.18,51.88.18l.06,9.24-56.32,33.23,56.3,32.82-.14,9.44ZM292.91,206.53l-86.05-.07,43.28,25.59,42.78-25.52ZM293.2,268.71l-43.22-25.4-43.11,25.4h86.33Z" fill="#fff"/><path d="M314.59,153.8c-6.11,16.32-21.21,26.15-38.21,26.13-9.7,0-18.43-2.74-26.27-8.88-16.8,13.04-41.28,11.8-56.04-3.66-9.67-10.12-12.85-24-10.91-37.65,2.95-20.79,20.13-35.63,41.12-35.39,9.65.11,18.5,3.03,25.8,9.1,19.95-15.94,49.84-10.56,62.32,12.09,5.92,11.89,7.01,25.35,2.19,38.25ZM242.26,162.55c-10.17-15.42-9.87-35.93.13-50.95-12.28-8.49-28.87-7.73-39.77,2.54-7.28,6.87-10.11,16.56-9.25,26.43,1.48,16.92,15.43,28.77,32.28,27.75,6.08-.37,11.78-1.93,16.61-5.77ZM275.28,168.36c18.28.64,31.53-13.27,31.71-30.73.15-15.65-9.92-29.04-25.89-31.45-8.26-1.25-16.58.5-23.24,5.5,10.08,15.56,10.1,35.44,0,51.03,5.05,3.57,10.78,5.42,17.43,5.65ZM250.17,154.4c6.34-11.11,6.11-23.93-.07-34.58-6.2,10.65-6.44,24.13.07,34.58Z" fill="#fff"/><path d="M316.91,371.23h-133.56s-.15-11.65-.15-11.65l52.71.02c1.94,0,3.36-.44,4.94-2.16l-57.52-45.77-.07-9.43h133.5s.21,9.3.21,9.3l-57.63,45.87c1.04,1.44,2.67,2.19,4.66,2.19l52.87-.02.04,11.65ZM295.63,313.96h-91.15s45.61,36.35,45.61,36.35l45.54-36.35Z" fill="#fff"/><polygon points="316.82 405.03 183.25 405.03 183.27 393.38 316.84 393.38 316.82 405.03" fill="#fff"/></g></svg>